<?xml version="1.0" encoding="utf-8"?>
<svg width="50px" height="50px" viewBox="0 0 50 50" version="1.1" xmlns:xlink="http://www.w3.org/1999/xlink" xmlns="http://www.w3.org/2000/svg">
  <defs>
    <path d="M0 0L50 0L50 50L0 50L0 0Z" id="path_1" />
    <clipPath id="mask_1">
      <use xlink:href="#path_1" />
    </clipPath>
  </defs>
  <g id="Home-icon">
    <path d="M0 0L50 0L50 50L0 50L0 0Z" id="Background" fill="none" fill-rule="evenodd" stroke="none" />
    <g clip-path="url(#mask_1)">
      <path d="M24.9629 1.05468C24.753 1.06191 24.5508 1.13503 24.3848 1.26366L1.38477 19.2109C0.94898 19.5507 0.871154 20.1794 1.21094 20.6152C1.55072 21.051 2.17944 21.1288 2.61523 20.7891L4 19.709L4 46C4.00027 46.5526 4.44813 47.0001 5.00039 47L18.832 47C18.94 47.0178 19.0502 47.0178 19.1582 47L30.832 47C30.94 47.0178 31.0502 47.0178 31.1582 47L45 47C45.5523 46.9999 45.9999 46.5522 46 46L46 19.709L47.3848 20.789C47.8206 21.1288 48.4493 21.051 48.7891 20.6152C49.1288 20.1794 49.051 19.5507 48.6152 19.2109L41 13.2695L41 5.99999L35 5.99999L35 8.58593L25.6152 1.26366C25.4292 1.11938 25.1982 1.04537 24.9629 1.05468L24.9629 1.05468ZM25 3.32225L44 18.1484L44 45L32 45L32 26L18 26L18 45L6 45L6 18.1484L25 3.32225L25 3.32225ZM37 7.99999L39 7.99999L39 11.709L37 10.1465L37 7.99999L37 7.99999ZM20 28L30 28L30 45L20 45L20 28L20 28Z" id="Shape" fill="#FFFFFF" fill-rule="evenodd" stroke="none" />
    </g>
  </g>
</svg>